<?xml version="1.0" encoding="utf-8"?>
<!-- Generator: Adobe Illustrator 25.0.1, SVG Export Plug-In . SVG Version: 6.00 Build 0)  -->
<svg version="1.1" id="Слой_1" xmlns="http://www.w3.org/2000/svg" xmlns:xlink="http://www.w3.org/1999/xlink" x="0px" y="0px"
	 viewBox="0 0 184.2 51.8" style="enable-background:new 0 0 184.2 51.8;" xml:space="preserve">
<style type="text/css">
	.st0{display:none;}
	.st1{display:inline;}
	.st2{fill:#01E397;}
	.st3{display:inline;fill:#010032;}
	.st4{display:inline;fill:#00E599;}
	.st5{display:inline;fill:#00AF92;}
	.st6{fill:#00C3E5;}
</style>
<g id="Layer_2">
	<g id="Layer_1-2" class="st0">
		<g class="st1">
			<path class="st2" d="M146.6,18.3v7.2h10.9V29h-10.9v10.7h-4V14.8h18v3.5H146.6z"/>
			<path class="st2" d="M180,15.7c1.7,0.9,3,2.2,4,3.8l-3,2.7c-0.6-1.3-1.5-2.4-2.6-3.3c-1.3-0.7-2.8-1-4.3-1
				c-1.4-0.1-2.8,0.3-4,1.1c-0.9,0.5-1.5,1.5-1.4,2.6c0,1,0.5,1.9,1.4,2.4c1.5,0.8,3.2,1.3,4.9,1.5c1.9,0.3,3.7,0.8,5.4,1.6
				c1.2,0.5,2.2,1.3,2.9,2.3c0.6,1,1,2.2,0.9,3.4c0,1.4-0.5,2.7-1.3,3.8c-0.9,1.2-2.1,2.1-3.5,2.6c-1.7,0.6-3.4,0.9-5.2,0.8
				c-5,0-8.6-1.6-10.7-5l2.9-2.8c0.7,1.4,1.8,2.5,3.1,3.3c1.5,0.7,3.1,1.1,4.7,1c1.5,0.1,2.9-0.2,4.2-0.9c0.9-0.5,1.5-1.5,1.5-2.6
				c0-0.9-0.5-1.8-1.3-2.2c-1.5-0.7-3.1-1.2-4.8-1.5c-1.9-0.3-3.7-0.8-5.5-1.5c-1.2-0.5-2.2-1.4-3-2.4c-0.6-1-1-2.2-0.9-3.4
				c0-1.4,0.4-2.7,1.2-3.8c0.8-1.2,2-2.2,3.3-2.8c1.6-0.7,3.4-1.1,5.2-1C176.1,14.3,178.2,14.8,180,15.7z"/>
		</g>
		<path class="st3" d="M73.3,16.3c1.9,1.9,2.9,4.5,2.7,7.1v15.9h-4V24.8c0-2.6-0.5-4.5-1.6-5.7c-1.2-1.2-2.8-1.8-4.5-1.7
			c-1.3,0-2.5,0.3-3.7,0.8c-1.2,0.7-2.2,1.7-2.9,2.9c-0.8,1.5-1.1,3.2-1.1,4.9v13.3h-4V15.1l3.6,1.5v1.7c0.8-1.5,2.1-2.6,3.6-3.3
			c1.5-0.8,3.2-1.2,4.9-1.1C68.9,13.8,71.3,14.7,73.3,16.3z"/>
		<path class="st3" d="M104.4,28.3H85.6c0.1,2.2,1,4.3,2.5,5.9c1.5,1.4,3.5,2.2,5.6,2.1c1.6,0.1,3.2-0.2,4.6-0.9
			c1.1-0.6,2-1.6,2.5-2.8l3.3,1.8c-0.9,1.7-2.3,3.1-4,4c-2,1-4.2,1.5-6.4,1.4c-3.7,0-6.7-1.1-8.8-3.4s-3.2-5.5-3.2-9.6s1-7.2,3-9.5
			s5-3.4,8.7-3.4c2.1-0.1,4.2,0.5,6.1,1.5c1.6,1,3,2.5,3.8,4.2c0.9,1.8,1.3,3.9,1.3,5.9C104.6,26.4,104.6,27.4,104.4,28.3z
			 M88.1,19.3c-1.4,1.5-2.2,3.4-2.4,5.5h15.1c-0.2-2-1-3.9-2.3-5.5c-1.4-1.3-3.2-2-5.1-1.9C91.5,17.3,89.6,18,88.1,19.3z"/>
		<path class="st3" d="M131,17.3c2.2,2.3,3.2,5.5,3.2,9.5s-1,7.3-3.2,9.6s-5.1,3.4-8.8,3.4s-6.7-1.1-8.9-3.4s-3.2-5.5-3.2-9.6
			s1.1-7.2,3.2-9.5s5.1-3.4,8.9-3.4S128.9,15,131,17.3z M116.2,19.9c-1.5,2-2.2,4.4-2.1,6.9c-0.2,2.5,0.6,5,2.1,7
			c1.5,1.7,3.7,2.7,6,2.6c2.3,0.1,4.4-0.9,5.9-2.6c1.5-2,2.3-4.5,2.1-7c0.1-2.5-0.6-4.9-2.1-6.9c-1.5-1.7-3.6-2.7-5.9-2.6
			C119.9,17.2,117.7,18.2,116.2,19.9z"/>
		<polygon class="st4" points="0,9.1 0,43.7 22.5,51.8 22.5,16.9 46.8,7.9 24.8,0 		"/>
		<polygon class="st5" points="24.3,17.9 24.3,36.8 46.8,44.9 46.8,9.6 		"/>
	</g>
	<g>
		<g>
			<path class="st6" d="M41.6,17.5H28.2v6.9h10.4v3.3H28.2v10.2h-3.9V14.2h17.2V17.5z"/>
			<path class="st6" d="M45.8,37.9v-18h3.3l0.4,3.2c0.5-1.2,1.2-2.1,2.1-2.7c0.9-0.6,2.1-0.9,3.5-0.9c0.4,0,0.7,0,1.1,0.1
				c0.4,0.1,0.7,0.2,0.9,0.3l-0.5,3.4c-0.3-0.1-0.6-0.2-0.9-0.2C55.4,23,54.9,23,54.4,23c-0.7,0-1.5,0.2-2.2,0.6
				c-0.7,0.4-1.3,1-1.8,1.8s-0.7,1.8-0.7,3v9.5H45.8z"/>
			<path class="st6" d="M68.6,19.6c1.8,0,3.3,0.4,4.6,1.1c1.3,0.7,2.4,1.8,3.1,3.2s1.1,3.1,1.1,5c0,1.9-0.4,3.6-1.1,5
				c-0.8,1.4-1.8,2.5-3.1,3.2c-1.3,0.7-2.9,1.1-4.6,1.1s-3.3-0.4-4.6-1.1c-1.3-0.7-2.4-1.8-3.2-3.2c-0.8-1.4-1.2-3.1-1.2-5
				c0-1.9,0.4-3.6,1.2-5s1.8-2.5,3.2-3.2C65.3,19.9,66.8,19.6,68.6,19.6z M68.6,22.6c-1.1,0-2,0.2-2.8,0.7c-0.8,0.5-1.3,1.2-1.7,2.1
				s-0.6,2.1-0.6,3.5c0,1.3,0.2,2.5,0.6,3.4s1,1.7,1.7,2.2s1.7,0.7,2.8,0.7c1.1,0,2-0.2,2.7-0.7c0.7-0.5,1.3-1.2,1.7-2.2
				s0.6-2.1,0.6-3.4c0-1.4-0.2-2.5-0.6-3.5s-1-1.6-1.7-2.1C70.6,22.8,69.6,22.6,68.6,22.6z"/>
			<path class="st6" d="M89.2,38.3c-1.8,0-3.4-0.3-4.9-1c-1.5-0.7-2.7-1.7-3.5-3l2.7-2.3c0.5,1,1.3,1.8,2.3,2.4
				c1,0.6,2.2,0.9,3.6,0.9c1.1,0,2-0.2,2.6-0.6c0.6-0.4,1-0.9,1-1.6c0-0.5-0.2-0.9-0.5-1.2s-0.9-0.6-1.7-0.8l-3.8-0.8
				c-1.9-0.4-3.3-1-4.1-1.9c-0.8-0.9-1.2-1.9-1.2-3.3c0-1,0.3-1.9,0.9-2.7c0.6-0.8,1.4-1.5,2.5-2s2.5-0.8,4-0.8c1.8,0,3.3,0.3,4.6,1
				c1.3,0.6,2.2,1.5,2.9,2.7l-2.7,2.2c-0.5-1-1.1-1.7-2-2.1c-0.9-0.5-1.8-0.7-2.8-0.7c-0.8,0-1.4,0.1-2,0.3c-0.6,0.2-1,0.5-1.3,0.8
				c-0.3,0.3-0.4,0.7-0.4,1.2c0,0.5,0.2,0.9,0.5,1.3s1,0.6,1.9,0.8l4.1,0.9c1.7,0.3,2.9,0.9,3.7,1.7c0.7,0.8,1.1,1.8,1.1,2.9
				c0,1.2-0.3,2.2-0.9,3c-0.6,0.9-1.5,1.6-2.6,2C92.1,38.1,90.7,38.3,89.2,38.3z"/>
			<path class="st6" d="M112.8,19.9v3H99.3v-3H112.8z M106.6,14.6v17.9c0,0.9,0.2,1.5,0.7,1.9c0.5,0.4,1.1,0.6,1.9,0.6
				c0.6,0,1.2-0.1,1.7-0.3c0.5-0.2,0.9-0.5,1.3-0.8l0.9,2.8c-0.6,0.5-1.2,0.9-2,1.1c-0.8,0.3-1.7,0.4-2.7,0.4c-1,0-2-0.2-2.8-0.5
				s-1.5-0.9-2-1.6c-0.5-0.8-0.7-1.7-0.8-3V15.7L106.6,14.6z"/>
			<path d="M137.9,17.5h-13.3v6.9h10.4v3.3h-10.4v10.2h-3.9V14.2h17.2V17.5z"/>
			<path d="M150.9,13.8c2.1,0,4,0.4,5.5,1.2c1.6,0.8,2.9,2,4,3.5l-2.6,2.5c-0.9-1.4-1.9-2.4-3.1-3c-1.1-0.6-2.5-0.9-4-0.9
				c-1.2,0-2.1,0.2-2.8,0.5c-0.7,0.3-1.3,0.7-1.6,1.2c-0.3,0.5-0.5,1.1-0.5,1.7c0,0.7,0.3,1.4,0.8,1.9c0.5,0.6,1.5,1,2.9,1.3
				l4.8,1.1c2.3,0.5,3.9,1.3,4.9,2.3c1,1,1.4,2.3,1.4,3.9c0,1.5-0.4,2.7-1.2,3.8c-0.8,1.1-1.9,1.9-3.3,2.5s-3.1,0.9-5,0.9
				c-1.7,0-3.2-0.2-4.5-0.6c-1.3-0.4-2.5-1-3.5-1.8c-1-0.7-1.8-1.6-2.5-2.6l2.7-2.7c0.5,0.8,1.1,1.6,1.9,2.2
				c0.8,0.7,1.7,1.2,2.7,1.5c1,0.4,2.2,0.5,3.4,0.5c1.1,0,2.1-0.1,2.9-0.4c0.8-0.3,1.4-0.7,1.8-1.2c0.4-0.5,0.6-1.1,0.6-1.9
				c0-0.7-0.2-1.3-0.7-1.8c-0.5-0.5-1.3-0.9-2.6-1.2l-5.2-1.2c-1.4-0.3-2.6-0.8-3.6-1.3c-0.9-0.6-1.6-1.3-2.1-2.1s-0.7-1.8-0.7-2.8
				c0-1.3,0.4-2.6,1.1-3.7c0.7-1.1,1.8-2,3.2-2.6C147.3,14.1,148.9,13.8,150.9,13.8z"/>
		</g>
	</g>
</g>
</svg>
